<svg width="200" height="62" viewBox="0 0 200 62" fill="none" xmlns="http://www.w3.org/2000/svg">
<path d="M18.976 39V24.744H8.992V39H1.12V5.736H8.992V18.6H18.976V5.736H26.848V39H18.976Z" fill="#141414"/>
<path d="M55.1688 25.752C55.1688 26.808 55.1208 27.72 55.0247 28.488H39.2327C39.4887 30.632 40.0967 32.136 41.0567 33C42.0167 33.864 43.3447 34.296 45.0407 34.296C46.0647 34.296 47.0568 34.12 48.0168 33.768C48.9768 33.384 50.0167 32.808 51.1367 32.04L54.2567 36.264C51.2807 38.632 47.9687 39.816 44.3207 39.816C40.1927 39.816 37.0247 38.6 34.8167 36.168C32.6087 33.736 31.5047 30.472 31.5047 26.376C31.5047 23.784 31.9687 21.464 32.8967 19.416C33.8247 17.336 35.1847 15.704 36.9767 14.52C38.7687 13.304 40.9127 12.696 43.4087 12.696C47.0887 12.696 49.9687 13.848 52.0487 16.152C54.1287 18.456 55.1688 21.656 55.1688 25.752ZM47.7287 23.592C47.6647 19.688 46.2888 17.736 43.6007 17.736C42.2888 17.736 41.2647 18.216 40.5287 19.176C39.8247 20.136 39.3927 21.72 39.2327 23.928H47.7287V23.592Z" fill="#141414"/>
<path d="M74.3571 12.696C76.5651 12.696 78.2931 13.368 79.5411 14.712C80.7891 16.056 81.4131 17.944 81.4131 20.376V39H73.8291V21.672C73.8291 20.392 73.6211 19.512 73.2051 19.032C72.8211 18.52 72.2291 18.264 71.4291 18.264C69.8931 18.264 68.4211 19.368 67.0131 21.576V39H59.4291V13.512H66.0531L66.5811 16.536C67.6691 15.256 68.8371 14.296 70.0851 13.656C71.3651 13.016 72.7891 12.696 74.3571 12.696Z" fill="#141414"/>
<path d="M100.956 12.792C101.884 12.792 102.732 12.904 103.5 13.128L102.3 20.472C101.34 20.248 100.572 20.136 99.9962 20.136C98.4922 20.136 97.3402 20.664 96.5402 21.72C95.7722 22.744 95.1642 24.296 94.7162 26.376V39H87.1322V13.512H93.7562L94.3802 18.456C94.9562 16.696 95.8203 15.32 96.9723 14.328C98.1563 13.304 99.4842 12.792 100.956 12.792Z" fill="#141414"/>
<path d="M113.982 13.512V39H106.398V13.512H113.982ZM110.142 0.0719986C111.454 0.0719986 112.526 0.487999 113.358 1.32C114.222 2.12 114.654 3.144 114.654 4.392C114.654 5.64 114.222 6.68 113.358 7.512C112.526 8.312 111.454 8.712 110.142 8.712C108.83 8.712 107.758 8.312 106.926 7.512C106.094 6.68 105.678 5.64 105.678 4.392C105.678 3.144 106.094 2.12 106.926 1.32C107.758 0.487999 108.83 0.0719986 110.142 0.0719986Z" fill="#141414"/>
<path d="M142.793 13.512V49.656L135.209 48.84V36.552C133.513 38.728 131.257 39.816 128.441 39.816C125.273 39.816 122.857 38.6 121.193 36.168C119.561 33.736 118.745 30.408 118.745 26.184C118.745 23.56 119.177 21.24 120.041 19.224C120.905 17.176 122.121 15.576 123.689 14.424C125.289 13.272 127.129 12.696 129.209 12.696C131.801 12.696 133.993 13.704 135.785 15.72L136.169 13.512H142.793ZM130.793 34.248C132.553 34.248 134.025 33.288 135.209 31.368V20.376C134.601 19.64 133.993 19.096 133.385 18.744C132.777 18.392 132.073 18.216 131.273 18.216C129.833 18.216 128.697 18.872 127.865 20.184C127.033 21.464 126.617 23.48 126.617 26.232C126.617 29.208 126.969 31.288 127.673 32.472C128.409 33.656 129.449 34.248 130.793 34.248Z" fill="#141414"/>
<path d="M170.23 39H163.654L163.318 35.784C161.462 38.472 158.886 39.816 155.59 39.816C153.254 39.816 151.478 39.112 150.262 37.704C149.078 36.296 148.486 34.328 148.486 31.8V13.512H156.07V30.84C156.07 32.088 156.262 32.968 156.646 33.48C157.062 33.96 157.686 34.2 158.518 34.2C160.118 34.2 161.494 33.208 162.646 31.224V13.512H170.23V39Z" fill="#141414"/>
<path d="M198.419 25.752C198.419 26.808 198.371 27.72 198.275 28.488H182.483C182.739 30.632 183.347 32.136 184.307 33C185.267 33.864 186.595 34.296 188.291 34.296C189.315 34.296 190.307 34.12 191.267 33.768C192.227 33.384 193.267 32.808 194.387 32.04L197.507 36.264C194.531 38.632 191.219 39.816 187.571 39.816C183.443 39.816 180.275 38.6 178.067 36.168C175.859 33.736 174.755 30.472 174.755 26.376C174.755 23.784 175.219 21.464 176.147 19.416C177.075 17.336 178.435 15.704 180.227 14.52C182.019 13.304 184.163 12.696 186.659 12.696C190.339 12.696 193.219 13.848 195.299 16.152C197.379 18.456 198.419 21.656 198.419 25.752ZM190.979 23.592C190.915 19.688 189.539 17.736 186.851 17.736C185.539 17.736 184.515 18.216 183.779 19.176C183.075 20.136 182.643 21.72 182.483 23.928H190.979V23.592Z" fill="#141414"/>
<path d="M198.035 59.4828C198.587 59.4785 199.031 59.0273 199.027 58.475L199.008 56C199.003 55.4477 198.552 55.0035 198 55.0078L1.00083 56.5465C0.448551 56.5509 0.00435395 57.0021 0.00866763 57.5543L0.0279997 60.0294C0.0323134 60.5816 0.483505 61.0258 1.03578 61.0215L198.035 59.4828Z" fill="#FF6600"/>
</svg>
