<svg width="15" height="49" viewBox="0 0 15 49" fill="none" xmlns="http://www.w3.org/2000/svg">
<path d="M13.3009 0.489045C13.8531 0.484731 14.3043 0.928936 14.3087 1.4812L14.6678 47.4603C14.6721 48.0126 14.2279 48.4638 13.6756 48.4681L5.67588 48.5306C5.12361 48.5349 4.67241 48.0907 4.6681 47.5384L4.30896 1.55931C4.30465 1.00704 4.74885 0.555843 5.30112 0.55153L13.3009 0.489045Z" fill="#FF6600"/>
<path d="M5.0958 18.016C5.64807 18.0117 6.09926 18.4559 6.10358 19.0082L6.32652 47.5507C6.33083 48.103 5.88663 48.5542 5.33436 48.5585L1.23777 48.5905C0.685504 48.5948 0.234305 48.1506 0.229992 47.5983L0.0070502 19.0558C0.00273652 18.5035 0.446941 18.0523 0.999209 18.048L5.0958 18.016Z" fill="#F6AC63"/>
</svg>
